<svg width="28" height="32" viewBox="0 0 28 32" fill="none" xmlns="http://www.w3.org/2000/svg">
<path d="M28 29.8V24.8C28 23.4 27.8 22 27 20.6C26.2 19.2 25.2 18 23.8 17.2C22.4 16.2 19.4 16 18 16L14.8 19.4L16 22V28L14 30.2L12 28V22L13.4 19.4L10 16C8.4 16 5.4 16.2 4 17.2C2.6 18 1.8 19.2 1 20.6C0.2 22 0 23.2 0 24.8V29.8C0 29.8 5.2 32 14 32C22.8 32 28 29.8 28 29.8ZM14 0.199997C10.2 0.199997 8 3.8 8.6 7.8C9.2 11.8 11.2 14.6 14 14.6C16.8 14.6 18.8 11.8 19.4 7.8C20 3.6 17.8 0.199997 14 0.199997Z" fill="#13A4E5"/>
</svg>
