<svg xmlns="http://www.w3.org/2000/svg" xml:space="preserve" viewBox="0 0 24 24" enable-background="new 0 0 24 24" id="stamps">
  <g id="Layer_2" fill="#13a4e5" class="color000000 svgShape">
    <path d="M6.80371,5.33105C7.25488,5.75391,7.86133,6,8.5,6c0.79102,0,1.5127-0.36475,1.97656-0.96777
		c1.01953-0.04395,2.02734-0.04395,3.04688,0C13.9873,5.63525,14.70898,6,15.5,6c0.63867,0,1.24512-0.24609,1.69629-0.66895
		c0.77734,0.12695,1.38184,0.74951,1.48145,1.53516C18.74707,7.41455,19.25,7.80322,19.7959,7.73242
		c0.54785-0.06982,0.93555-0.57031,0.86621-1.11816c-0.21777-1.71143-1.56445-3.05859-3.27832-3.27637
		c-0.17969-0.02246-0.37012-0.04443-0.55078-0.05615c-0.37402-0.02246-0.7373,0.16748-0.92773,0.49561
		C15.82617,3.9126,15.66699,4,15.5,4c-0.23242,0-0.39941-0.15625-0.46094-0.31104c-0.14453-0.36084-0.48438-0.60547-0.87207-0.62744
		c-1.4375-0.08105-2.89648-0.08105-4.33398,0c-0.3877,0.02197-0.72754,0.2666-0.87207,0.62744C8.89941,3.84375,8.73242,4,8.5,4
		C8.33301,4,8.17383,3.9126,8.09473,3.77734C7.9043,3.44922,7.52734,3.25781,7.16699,3.28174
		C6.98633,3.29346,6.7959,3.31543,6.61426,3.33789c-1.71191,0.21777-3.05859,1.56494-3.27637,3.2749
		C3.31445,6.79395,3.29297,6.9873,3.28223,7.16895C3.25879,7.54639,3.45117,7.9043,3.77734,8.09424C3.91309,8.17285,4,8.33203,4,8.5
		c0,0.23291-0.15625,0.39941-0.31152,0.46143C3.32812,9.10596,3.08301,9.44531,3.06152,9.83301C3.02051,10.55176,3,11.28076,3,12
		s0.02051,1.44824,0.06152,2.16699c0.02148,0.3877,0.2666,0.72705,0.62695,0.87158C3.84375,15.10059,4,15.26709,4,15.5
		c0,0.16797-0.08691,0.32715-0.22266,0.40576c-0.32617,0.18994-0.51855,0.54785-0.49512,0.92529
		c0.01074,0.18164,0.03223,0.375,0.05566,0.55469c0.21777,1.71143,1.56445,3.05859,3.27832,3.27637
		c0.18066,0.02246,0.37305,0.04492,0.55371,0.05566c0.375,0.02344,0.73438-0.16797,0.9248-0.49512
		C8.17383,20.0874,8.33301,20,8.5,20c0.23242,0,0.39941,0.15625,0.46094,0.31104c0.14453,0.36035,0.48438,0.60498,0.87207,0.62744
		C10.55176,20.97949,11.28125,21,12,21s1.44824-0.02051,2.16699-0.06152c0.3877-0.02246,0.72754-0.26709,0.87207-0.62744
		C15.10059,20.15625,15.26758,20,15.5,20c0.16699,0,0.32617,0.0874,0.40527,0.22266c0.19043,0.32715,0.5498,0.51855,0.9248,0.49512
		c0.18066-0.01074,0.37305-0.0332,0.55566-0.05566c0.90137-0.11426,1.73242-0.5498,2.33984-1.22656
		c0.36914-0.41113,0.33496-1.04346-0.07617-1.41211c-0.41113-0.36816-1.04199-0.33594-1.41211,0.07617
		c-0.27246,0.30371-0.64062,0.50439-1.04004,0.56934C16.74512,18.24609,16.13867,18,15.5,18
		c-0.79102,0-1.5127,0.36475-1.97656,0.96777c-1.01562,0.04297-2.03125,0.04297-3.04688,0C10.0127,18.36475,9.29102,18,8.5,18
		c-0.63867,0-1.24512,0.24609-1.69727,0.66895c-0.75488-0.12354-1.34766-0.71582-1.47168-1.47168
		C5.75391,16.74561,6,16.13916,6,15.5c0-0.79102-0.36523-1.5127-0.96875-1.97656C5.01074,13.01562,5,12.50537,5,12
		s0.01074-1.01562,0.03125-1.52344C5.63477,10.0127,6,9.29102,6,8.5c0-0.63916-0.24609-1.24561-0.66895-1.69727
		C5.45508,6.04688,6.04883,5.45361,6.80371,5.33105z" fill="#13a4e5" class="color000000 svgShape"></path>
    <path d="M22 12.35986c-.52344 0-.74023-.104-1.06836-.26172-.42578-.2041-.95605-.45801-1.93359-.45801s-1.50684.25391-1.93262.45801c-.32812.15771-.54492.26172-1.06836.26172-.52148 0-.73828-.104-1.06641-.26123-.4248-.20459-.9541-.4585-1.93066-.4585-.55273 0-1 .44775-1 1s.44727 1 1 1c.52148 0 .7373.104 1.06543.26123.4248.2041.9541.4585 1.93164.4585.97852 0 1.50781-.25391 1.93359-.4585.32812-.15723.54492-.26123 1.06738-.26123.52344 0 .74023.104 1.06836.26172.42578.2041.95605.45801 1.93359.45801.55273 0 1-.44775 1-1S22.55273 12.35986 22 12.35986zM22 15.35986c-.52344 0-.74023-.104-1.06836-.26172-.42578-.2041-.95605-.45801-1.93359-.45801s-1.50684.25391-1.93262.45801c-.32812.15771-.54492.26172-1.06836.26172-.52148 0-.73828-.104-1.06641-.26123-.4248-.20459-.9541-.4585-1.93066-.4585-.55273 0-1 .44775-1 1s.44727 1 1 1c.52148 0 .7373.104 1.06543.26123.4248.2041.9541.4585 1.93164.4585.97852 0 1.50781-.25391 1.93359-.4585.32812-.15723.54492-.26123 1.06738-.26123.52344 0 .74023.104 1.06836.26172.42578.2041.95605.45801 1.93359.45801.55273 0 1-.44775 1-1S22.55273 15.35986 22 15.35986zM22 9.35986c-.52344 0-.74023-.104-1.06836-.26172-.42578-.2041-.95605-.45801-1.93359-.45801s-1.50684.25391-1.93262.45801c-.32812.15771-.54492.26172-1.06836.26172-.52148 0-.73828-.104-1.06641-.26123-.4248-.20459-.9541-.4585-1.93066-.4585-.55273 0-1 .44775-1 1s.44727 1 1 1c.52148 0 .7373.104 1.06543.26123.4248.2041.9541.4585 1.93164.4585.97852 0 1.50781-.25391 1.93359-.4585.32812-.15723.54492-.26123 1.06738-.26123.52344 0 .74023.104 1.06836.26172.42578.2041.95605.45801 1.93359.45801.55273 0 1-.44775 1-1S22.55273 9.35986 22 9.35986z" fill="#13a4e5" class="color000000 svgShape"></path>
  </g>
</svg>
