<svg width="36" height="36" viewBox="0 0 36 36" fill="none" xmlns="http://www.w3.org/2000/svg">
<path fill-rule="evenodd" clip-rule="evenodd" d="M15.6433 1.5C16.2333 0.910788 17.0227 0.564087 17.8557 0.528297C18.6888 0.492507 19.505 0.770227 20.1433 1.30666L20.3567 1.50167L23.5233 4.66666H28C28.8407 4.66682 29.6502 4.98462 30.2665 5.55639C30.8828 6.12817 31.2603 6.91169 31.3233 7.75L31.3333 8V12.4767L34.5 15.6433C35.0897 16.2334 35.4367 17.0231 35.4725 17.8566C35.5083 18.69 35.2302 19.5065 34.6933 20.145L34.4983 20.3567L31.3317 23.5233V28C31.3319 28.841 31.0143 29.6509 30.4425 30.2676C29.8707 30.8842 29.0869 31.2619 28.2483 31.325L28 31.3333H23.525L20.3583 34.5C19.7683 35.0897 18.9785 35.4367 18.1451 35.4725C17.3117 35.5083 16.4951 35.2302 15.8567 34.6933L15.645 34.5L12.4783 31.3333H8C7.15904 31.3336 6.34905 31.016 5.73242 30.4442C5.11578 29.8724 4.73807 29.0886 4.675 28.25L4.66666 28V23.5233L1.5 20.3567C0.91032 19.7666 0.563326 18.9769 0.527532 18.1434C0.491739 17.31 0.769748 16.4934 1.30666 15.855L1.5 15.6433L4.66666 12.4767V8C4.66682 7.15933 4.98461 6.34976 5.55639 5.73347C6.12817 5.11719 6.91169 4.73972 7.75 4.67666L8 4.66666H12.4767L15.6433 1.5ZM23.1317 12.9717L16.0583 20.045L13.1117 17.0983C12.7989 16.7858 12.3749 16.6103 11.9327 16.6105C11.4906 16.6107 11.0667 16.7864 10.7542 17.0992C10.4416 17.4119 10.2662 17.836 10.2663 18.2781C10.2665 18.7202 10.4423 19.1441 10.755 19.4567L14.7617 23.4633C14.9319 23.6337 15.1341 23.7688 15.3565 23.861C15.579 23.9532 15.8175 24.0006 16.0583 24.0006C16.2992 24.0006 16.5376 23.9532 16.7601 23.861C16.9826 23.7688 17.1847 23.6337 17.355 23.4633L25.4883 15.3283C25.7919 15.014 25.9599 14.593 25.9561 14.156C25.9523 13.719 25.777 13.301 25.468 12.992C25.159 12.683 24.741 12.5077 24.304 12.5039C23.867 12.5001 23.446 12.6681 23.1317 12.9717Z" fill="#13A4E5"/>
</svg>
