<svg width="30" height="28" viewBox="0 0 30 28" fill="none" xmlns="http://www.w3.org/2000/svg">
<path d="M2.69333 27.3333C1.92556 27.3333 1.285 27.0767 0.771667 26.5633C0.258333 26.05 0.00111111 25.4089 0 24.64V18.1667H11.6667V20.6667H18.3333V18.1667H30V24.6417C30 25.4083 29.7433 26.0483 29.23 26.5617C28.7167 27.075 28.0761 27.3322 27.3083 27.3333H2.69333ZM13.3333 19V15.6667H16.6667V19H13.3333ZM0 16.5V8.35999C0 7.59222 0.257222 6.95166 0.771667 6.43833C1.28611 5.92499 1.92611 5.66777 2.69167 5.66666H10V3.35833C10 2.59166 10.2572 1.9511 10.7717 1.43666C11.2861 0.922215 11.9267 0.665549 12.6933 0.66666H17.3083C18.075 0.66666 18.7156 0.923327 19.23 1.43666C19.7444 1.94999 20.0011 2.59055 20 3.35833V5.66666H27.3083C28.075 5.66666 28.715 5.92388 29.2283 6.43833C29.7417 6.95277 29.9989 7.59333 30 8.35999V16.5H18.3333V14H11.6667V16.5H0ZM11.6667 5.66666H18.3333V3.35833C18.3333 3.10277 18.2267 2.86777 18.0133 2.65333C17.8 2.43888 17.565 2.33222 17.3083 2.33333H12.6917C12.4361 2.33333 12.2011 2.43999 11.9867 2.65333C11.7722 2.86666 11.6656 3.10166 11.6667 3.35833V5.66666Z" fill="#13A4E5"/>
</svg>
