<svg width="28" height="34" viewBox="0 0 28 34" fill="none" xmlns="http://www.w3.org/2000/svg">
<path fill-rule="evenodd" clip-rule="evenodd" d="M24 0.333333C24.8841 0.333333 25.7319 0.684522 26.357 1.30964C26.9821 1.93476 27.3333 2.78261 27.3333 3.66667V20.3333H16.5C15.837 20.3333 15.2011 20.5967 14.7322 21.0656C14.2634 21.5344 14 22.1703 14 22.8333V33.6667H4C3.11594 33.6667 2.2681 33.3155 1.64297 32.6904C1.01785 32.0652 0.666664 31.2174 0.666664 30.3333V3.66667C0.666664 2.78261 1.01785 1.93476 1.64297 1.30964C2.2681 0.684522 3.11594 0.333333 4 0.333333H24ZM27.2617 23.6667C27.1277 24.2981 26.8133 24.8771 26.3567 25.3333L19 32.69C18.5438 33.1467 17.9648 33.4611 17.3333 33.595V23.6667H27.2617ZM10.6667 15.3333H9C8.55797 15.3333 8.13405 15.5089 7.82149 15.8215C7.50893 16.134 7.33333 16.558 7.33333 17C7.33333 17.442 7.50893 17.8659 7.82149 18.1785C8.13405 18.4911 8.55797 18.6667 9 18.6667H10.6667C11.1087 18.6667 11.5326 18.4911 11.8452 18.1785C12.1577 17.8659 12.3333 17.442 12.3333 17C12.3333 16.558 12.1577 16.134 11.8452 15.8215C11.5326 15.5089 11.1087 15.3333 10.6667 15.3333ZM19 8.66667H9C8.55797 8.66667 8.13405 8.84226 7.82149 9.15482C7.50893 9.46738 7.33333 9.8913 7.33333 10.3333C7.33333 10.7754 7.50893 11.1993 7.82149 11.5118C8.13405 11.8244 8.55797 12 9 12H19C19.442 12 19.8659 11.8244 20.1785 11.5118C20.4911 11.1993 20.6667 10.7754 20.6667 10.3333C20.6667 9.8913 20.4911 9.46738 20.1785 9.15482C19.8659 8.84226 19.442 8.66667 19 8.66667Z" fill="#13A4E5"/>
</svg>
