<svg width="28" height="30" viewBox="0 0 28 30" fill="none" xmlns="http://www.w3.org/2000/svg">
<path d="M3.02668 30C2.2589 30 1.61834 29.7433 1.10501 29.23C0.591677 28.7167 0.334455 28.0761 0.333344 27.3083V2.69167C0.333344 1.925 0.590565 1.285 1.10501 0.771667C1.61945 0.258333 2.26001 0.00111111 3.02668 0H16.1667L23.6667 7.5V13.1733C23.1133 13.2478 22.5967 13.4167 22.1167 13.68C21.6367 13.9433 21.1922 14.2789 20.7833 14.6867L10.7833 24.645V30H3.02668ZM14.7567 30V26.3167L23.645 17.4717C23.8095 17.3272 23.98 17.2217 24.1567 17.155C24.3345 17.0861 24.5122 17.0517 24.69 17.0517C24.8733 17.0517 25.0589 17.0872 25.2467 17.1583C25.4356 17.2306 25.6011 17.3383 25.7433 17.4817L27.285 19.055C27.4217 19.2194 27.5261 19.3906 27.5983 19.5683C27.6695 19.745 27.705 19.9222 27.705 20.1C27.705 20.2778 27.6711 20.4567 27.6033 20.6367C27.5356 20.8167 27.43 20.9889 27.2867 21.1533L18.4383 30H14.7567ZM24.69 21.6917L26.2317 20.0983L24.69 18.5267L23.1067 20.11L24.69 21.6917ZM15.3333 8.33333H22L15.3333 1.66667V8.33333Z" fill="#13A4E5"/>
</svg>
