<svg width="38" height="28" viewBox="0 0 38 28" fill="none" xmlns="http://www.w3.org/2000/svg">
<path d="M25.25 14C23.6438 14 22.0906 13.2828 20.875 11.9813C19.693 10.7117 18.9711 9.01875 18.8438 7.21563C18.7078 5.29219 19.2945 3.52344 20.4953 2.23438C21.6961 0.945313 23.375 0.25 25.25 0.25C27.1117 0.25 28.7953 0.957812 29.9922 2.24375C31.2008 3.54219 31.7891 5.30781 31.6531 7.21484C31.5227 9.02031 30.8016 10.7125 29.6219 11.9805C28.4094 13.2828 26.857 14 25.25 14ZM35.5492 27.75H14.9516C14.6204 27.7518 14.2932 27.6775 13.9953 27.533C13.6973 27.3885 13.4365 27.1776 13.2328 26.9164C13.0168 26.6333 12.8676 26.305 12.7965 25.9561C12.7253 25.6072 12.734 25.2467 12.8219 24.9016C13.4797 22.2602 15.1094 20.0695 17.5344 18.5672C19.6867 17.2344 22.4266 16.5 25.25 16.5C28.1289 16.5 30.7969 17.2031 32.9617 18.5352C35.3922 20.0297 37.0242 22.2328 37.6789 24.9062C37.7657 25.2516 37.7735 25.6121 37.7015 25.9608C37.6295 26.3096 37.4797 26.6376 37.2633 26.9203C37.0598 27.1803 36.7996 27.3902 36.5025 27.534C36.2054 27.6778 35.8793 27.7517 35.5492 27.75ZM10.4844 14.3125C7.73516 14.3125 5.31797 11.7563 5.09375 8.61484C4.98282 7.00547 5.48438 5.51719 6.5 4.42578C7.50469 3.34531 8.92188 2.75 10.4844 2.75C12.0469 2.75 13.4531 3.34844 14.4633 4.43516C15.4867 5.53516 15.9867 7.02031 15.8695 8.61641C15.6453 11.757 13.2289 14.3125 10.4844 14.3125ZM15.6141 16.7695C14.2398 16.0977 12.4563 15.7617 10.4852 15.7617C8.1836 15.7617 5.94844 16.3617 4.19063 17.4508C2.19766 18.6875 0.857034 20.4883 0.315628 22.6625C0.236397 22.9752 0.228904 23.3018 0.293707 23.6179C0.35851 23.9339 0.493933 24.2312 0.689846 24.4875C0.875743 24.7261 1.1139 24.919 1.38599 25.0512C1.65809 25.1834 1.95688 25.2514 2.25938 25.25H10.9313C11.0776 25.25 11.2193 25.1986 11.3317 25.1048C11.4441 25.011 11.5199 24.8807 11.5461 24.7367C11.5547 24.6875 11.5656 24.6383 11.5781 24.5898C12.2406 21.9289 13.793 19.6805 16.0867 18.0414C16.1711 17.9806 16.2389 17.8997 16.2841 17.806C16.3293 17.7124 16.3505 17.6089 16.3456 17.505C16.3407 17.4011 16.3099 17.3001 16.2561 17.2111C16.2024 17.1221 16.1272 17.0479 16.0375 16.9953C15.9148 16.9234 15.7742 16.8477 15.6141 16.7695Z" fill="#13A4E5"/>
</svg>
