<svg width="22" height="22" viewBox="0 0 22 22" fill="none" xmlns="http://www.w3.org/2000/svg">
<g id="person-svgrepo-com (5) 1">
<g id="Group">
<path id="Vector" d="M19.6865 17.3686C18.8731 15.9227 17.5409 14.285 15.372 13.354C14.1316 14.2218 12.6247 14.7328 11.0002 14.7328C9.37476 14.7328 7.86785 14.2219 6.62739 13.354C4.45858 14.285 3.12633 15.9228 2.31341 17.3686C1.23451 19.2864 2.08039 22 3.94631 22C5.81227 22 11.0002 22 11.0002 22C11.0002 22 16.1877 22 18.0537 22C19.9196 22 20.7654 19.2864 19.6865 17.3686Z" fill="#13A4E5"/>
<path id="Vector_2" d="M11.0002 12.9182C14.1861 12.9182 16.7679 10.3354 16.7679 7.14996V5.76817C16.7679 2.58277 14.1861 0 11.0002 0C7.81386 0 5.23157 2.58277 5.23157 5.76821V7.15C5.23157 10.3354 7.8139 12.9182 11.0002 12.9182Z" fill="#13A4E5"/>
</g>
</g>
</svg>
