<svg xmlns="http://www.w3.org/2000/svg" viewBox="0 0 16 16" id="Pin">
  <path d="M4.07 11.225.533 14.76l.71.707 3.534-3.535zm5.657-9.7a.5.5 0 0 1 .353.153l4.242 4.242a.488.488 0 0 1 0 .707.488.488 0 0 1-.707 0L9.373 2.385a.488.488 0 0 1 0-.707.5.5 0 0 1 .354-.153zm-.707 1.92 3.535 3.537L9 10.537 5.465 7.002zM4.547 7.53l3.943 3.944-.283 1.27-.603.603L2.66 8.4l.611-.609z" color="#000" font-family="sans-serif" font-weight="400" overflow="visible" style="text-indent:0;text-align:start;line-height:normal;text-transform:none;block-progression:tb" fill="#1976d2" class="color000000 svgShape"></path>
</svg>
