<svg  xmlns="http://www.w3.org/2000/svg" width="32" height="32" id="group" fill="#13A4E5">
  <path d="M12.266 3.854c-2.896 0-5.268 2.372-5.268 5.268s2.372 5.268 5.268 5.268 5.268-2.372 5.268-5.268-2.372-5.268-5.268-5.268zm0 2.136A3.119 3.119 0 0 1 15.4 9.124a3.119 3.119 0 0 1-3.134 3.134 3.119 3.119 0 0 1-3.134-3.134 3.117 3.117 0 0 1 3.134-3.134zm4.275 9.597a12.193 12.193 0 0 0-1.581-.481 1.067 1.067 0 0 0-1.079.379l-1.504 1.921-1.496-1.952c-.196-.261-.501-.417-.94-.414C4.221 16.185 0 21.147 0 27.075a1.069 1.069 0 0 0 1.067 1.071h22.398a1.068 1.068 0 0 0 1.071-1.067 12.21 12.21 0 0 0-.769-4.271h7.171a1.068 1.068 0 0 0 1.063-1.063 8.971 8.971 0 0 0-6.992-8.748 1.066 1.066 0 0 0-1.079.385l-.811 1.031-.804-1.056c-.2-.261-.508-.418-.951-.411-1.958.385-3.584 1.329-4.823 2.641zm8.511-.181c2.371.769 3.995 2.76 4.433 5.269h-6.767a12.311 12.311 0 0 0-3.89-3.956c.684-.594 1.444-1.084 2.334-1.352l1.096 1.433c.354.471 1.023.565 1.593.113l1.201-1.507zm-10.041 2.102c3.84 1.122 6.531 4.42 7.008 8.504H2.517c.488-4.159 3.264-7.502 7.213-8.558l1.795 2.346c.359.467 1.029.555 1.59.102l1.896-2.394zM23.038 5.06c-2.211 0-4.032 1.812-4.032 4.023s1.82 4.032 4.032 4.032 4.023-1.82 4.023-4.032a4.036 4.036 0 0 0-4.023-4.023zm0 2.134a1.87 1.87 0 0 1 1.89 1.89 1.878 1.878 0 0 1-1.89 1.898 1.884 1.884 0 0 1-1.898-1.898c0-1.059.839-1.89 1.898-1.89z"></path>
</svg>


